<svg width="143" height="22" viewBox="0 0 143 22" fill="none" xmlns="http://www.w3.org/2000/svg">
<path d="M16.9726 1.23236V20.7677H12.5466L5.48794 10.504H5.37347V20.7677H0.0699463V1.23236H4.57222L11.5164 11.4579H11.669V1.23236H16.9726Z" fill="#EF5B47"/>
<path d="M16.7951 20.7677V1.23236H30.8743V5.5057H22.0987V8.86333H30.1493V13.1367H22.0987V16.4943H30.8361V20.7677H16.7951Z" fill="#EF5B47"/>
<path d="M30.2843 5.5057V1.23236H47.2632V5.5057H41.3874V20.7677H36.1602V5.5057H30.2843Z" fill="#EF5B47"/>
<path d="M51.5332 20.7677L45.7719 1.23236H51.6859L54.3567 13.2511H54.5093L57.6762 1.23236H62.3311L65.4979 13.2893H65.6506L68.3214 1.23236H74.2354L68.474 20.7677H63.3994L60.0799 9.85536H59.9273L56.6078 20.7677H51.5332Z" fill="#EF5B47"/>
<path d="M90.9582 11C90.9582 13.1748 90.5353 15.0094 89.6896 16.5038C88.8438 17.9919 87.7023 19.1206 86.2652 19.8901C84.828 20.6532 83.2255 21.0347 81.4576 21.0347C79.6771 21.0347 78.0682 20.65 76.6311 19.8806C75.2002 19.1047 74.062 17.9728 73.2162 16.4848C72.3768 14.9904 71.9571 13.1621 71.9571 11C71.9571 8.82518 72.3768 6.99374 73.2162 5.5057C74.062 4.0113 75.2002 2.88255 76.6311 2.11946C78.0682 1.35 79.6771 0.965271 81.4576 0.965271C83.2255 0.965271 84.828 1.35 86.2652 2.11946C87.7023 2.88255 88.8438 4.0113 89.6896 5.5057C90.5353 6.99374 90.9582 8.82518 90.9582 11ZM85.5021 11C85.5021 9.82992 85.3463 8.84425 85.0347 8.043C84.7294 7.23539 84.2747 6.62491 83.6706 6.21157C83.0729 5.79186 82.3352 5.58201 81.4576 5.58201C80.5801 5.58201 79.8392 5.79186 79.2351 6.21157C78.6374 6.62491 78.1827 7.23539 77.8711 8.043C77.5658 8.84425 77.4132 9.82992 77.4132 11C77.4132 12.1701 77.5658 13.1589 77.8711 13.9665C78.1827 14.7678 78.6374 15.3783 79.2351 15.798C79.8392 16.2113 80.5801 16.418 81.4576 16.418C82.3352 16.418 83.0729 16.2113 83.6706 15.798C84.2747 15.3783 84.7294 14.7678 85.0347 13.9665C85.3463 13.1589 85.5021 12.1701 85.5021 11Z" fill="#EF5B47"/>
<path d="M109.651 11C109.651 13.1748 109.228 15.0094 108.382 16.5038C107.536 17.9919 106.395 19.1206 104.958 19.8901C103.521 20.6532 101.918 21.0347 100.15 21.0347C98.3696 21.0347 96.7608 20.65 95.3236 19.8806C93.8928 19.1047 92.7545 17.9728 91.9087 16.4848C91.0693 14.9904 90.6496 13.1621 90.6496 11C90.6496 8.82518 91.0693 6.99374 91.9087 5.5057C92.7545 4.0113 93.8928 2.88255 95.3236 2.11946C96.7608 1.35 98.3696 0.965271 100.15 0.965271C101.918 0.965271 103.521 1.35 104.958 2.11946C106.395 2.88255 107.536 4.0113 108.382 5.5057C109.228 6.99374 109.651 8.82518 109.651 11ZM104.195 11C104.195 9.82992 104.039 8.84425 103.727 8.043C103.422 7.23539 102.967 6.62491 102.363 6.21157C101.765 5.79186 101.028 5.58201 100.15 5.58201C99.2726 5.58201 98.5318 5.79186 97.9277 6.21157C97.3299 6.62491 96.8752 7.23539 96.5636 8.043C96.2584 8.84425 96.1058 9.82992 96.1058 11C96.1058 12.1701 96.2584 13.1589 96.5636 13.9665C96.8752 14.7678 97.3299 15.3783 97.9277 15.798C98.5318 16.2113 99.2726 16.418 100.15 16.418C101.028 16.418 101.765 16.2113 102.363 15.798C102.967 15.3783 103.422 14.7678 103.727 13.9665C104.039 13.1589 104.195 12.1701 104.195 11Z" fill="#EF5B47"/>
<path d="M109.418 20.7677V1.23236H117.851C119.301 1.23236 120.569 1.49626 121.657 2.02407C122.744 2.55188 123.59 3.3118 124.194 4.30382C124.798 5.29585 125.1 6.48501 125.1 7.8713C125.1 9.27032 124.789 10.4499 124.165 11.4102C123.549 12.3704 122.68 13.0953 121.561 13.585C120.448 14.0747 119.148 14.3195 117.66 14.3195H112.623V10.1988H116.592C117.215 10.1988 117.746 10.1224 118.185 9.96982C118.63 9.81084 118.97 9.55966 119.205 9.21626C119.447 8.87287 119.568 8.42455 119.568 7.8713C119.568 7.3117 119.447 6.85702 119.205 6.50727C118.97 6.15116 118.63 5.89043 118.185 5.72509C117.746 5.55339 117.215 5.46755 116.592 5.46755H114.722V20.7677H109.418ZM120.865 11.8013L125.749 20.7677H119.987L115.218 11.8013H120.865Z" fill="#EF5B47"/>
<path d="M124.675 20.7677V1.23236H129.978V9.13041H130.245L136.121 1.23236H142.302L135.701 9.93167L142.455 20.7677H136.121L131.733 13.4419L129.978 15.7312V20.7677H124.675Z" fill="#EF5B47"/>
</svg>
